<svg xmlns="http://www.w3.org/2000/svg" xml:space="preserve" width="64" height="64" data-id="lg_F1I2CCX1AVZ65K3cmz" data-version="1" viewBox="0 0 2000 711"><g data-padding="20"><g transform="translate(10 8.8)scale(.97525)"><rect width="808" height="170.63" x="211.367" y="-125.299" fill="none" rx="0" ry="0" transform="translate(399.76 665.68)"/><path fill="#23488a" d="M656.967 675.186q-6.34 0-11.63-1.13-5.28-1.13-8.68-2.49t-3.4-1.51l-.75-1.51q.15-.91.6-4.53.46-3.62.83-9.44.38-5.81.38-12.3l6.8-.76q0 11.33 1.51 16.76 1.51 5.44 5.58 7.48 4.08 2.03 12.54 2.03 9.51 0 15.25-4.45t5.74-12.16q0-4.53-3.1-8.15t-7.32-6.19q-4.23-2.57-12.54-6.95-7.85-4.07-12.83-7.47t-8.38-8.08-3.4-10.87q0-7.85 4.61-14.27 4.6-6.42 12.53-10.12t17.59-3.7q6.04 0 11.17.83 5.14.83 8.16 1.74t3.77 1.21l.46.9q-.15.91-.76 4.23-.6 3.32-1.36 9.21-.75 5.89-1.21 12.08l-5.88.61-.91-.76q.15-.6.3-2.79t.15-5.06q0-8-3.92-11.02-3.93-3.02-14.05-3.02-8.3 0-13.66 4.15t-5.36 10.34q0 6.04 5.21 10.5 5.21 4.45 15.32 9.74 9.82 4.98 14.95 8.23 5.14 3.24 9.06 8.07 3.93 4.84 3.93 11.18 0 8.45-4.76 15.17-4.75 6.72-13.21 10.5-8.46 3.77-19.33 3.77m65.54-64.79q0-3.77-.91-5.05-.91-1.29-3.62-1.29l-4.08.15-.45-.6.9-5.74q1.66 0 6.04.15t8.46.15q3.32 0 8-.45t6.19-.6l-.45 6.19q-4.68.75-6.34 2.19-1.66 1.43-1.82 4.75l-1.35 49.08q-.16 4.83.98 6.49 1.13 1.66 4.3 1.66 1.81 0 3.32-.15t1.97-.3l.3.6-1.06 6.04q-1.66 0-6.34-.15t-9.51-.15l-14.95.15 1.2-6.04q5.74-.6 7.4-2.26t1.66-6.8Zm14.04 23.86 21.14-20.99q3.62-3.47 3.62-5.89 0-3.17-7.4-3.62l-.3-.6.91-5.74q1.51.15 6.34.45t7.7.3q3.93 0 7.47-.15 3.55-.15 4.76-.3l.61.91-.91 5.43q-3.32.91-6.27 3.1-2.94 2.19-8.53 7.93l-18.12 17.96 19.63 25.07q4.38 5.44 7.78 7.7 3.4 2.27 7.62 2.42l.61.75-.76 4.68q-1.51.15-5.21.68t-6.11.68q-6.65 0-13.89-9.96l-20.84-28.84Zm57.38 40.48.75-6.19q5.74-1.06 7.7-3.1 1.97-2.03 1.97-7.02l.15-48.02q0-3.77-.91-5.05-.9-1.29-3.62-1.29l-4.98.15-.31-.6.76-5.74q.9 0 4.91.15 4 .15 10.49.15 3.47 0 8.53-.45t6.57-.6l-.6 6.19q-4.99.6-6.65 1.89-1.66 1.28-1.96 4.75-.6 12.08-1.13 26.73t-.53 22.65q0 4.83 1.06 6.49 1.05 1.66 4.22 1.66 2.12 0 3.85-.15 1.74-.15 2.34-.3l.31.6-1.06 6.04q-1.81 0-6.8-.15-4.98-.15-9.96-.15-4.08 0-8.84.53-4.75.53-6.26.83m109.93-21.89-.15-43.64q0-4.99-4.08-4.99h-4.53l-.3-.6 1.05-5.89q1.36.15 5.14.3 3.77.15 7.7.15 3.32 0 7.47-.37 4.16-.38 5.36-.53l-.6 6.19q-4.38.6-6.27 2.34-1.88 1.74-2.04 5.21l-1.81 64.93-5.89 1.66q-14.34-20.99-28.99-41.07-14.65-20.09-14.65-19.78h-.75l-.45 45.75q0 2.87.9 3.93.91 1.05 3.02 1.05l6.04-.15.46.45-1.21 6.04q-1.36-.15-5.36-.3t-8.38-.15q-3.48 0-7.4.38-3.93.38-5.14.53l.76-6.19q3.77-.46 5.59-2.19 1.81-1.74 1.96-5.21l1.66-49.83q0-3.78-2.19-5.21-2.19-1.44-8.38-2.19l-.6-.76 1.05-5.13q1.21.15 4.61.38 3.4.22 6.87.22 3.32 0 5.89-.15 2.56-.15 3.32-.3 12.23 17.97 25.9 36.69 13.66 18.73 13.66 18.43Zm31.11 21.88.76-6.19q5.74-1.06 7.62-3.1 1.89-2.03 1.89-7.17l.15-47.87q0-3.77-.9-5.05-.91-1.29-3.63-1.29l-4.08.15-.3-.6.91-5.74q1.81 0 7.1.15 5.28.15 11.47.15 23.41 0 34.73-1.36l.61.76q-.31 1.66-1.36 7.7-1.06 6.04-1.51 12.84l-7.25.45q0-.61.15-2.12t.15-3.02q0-3.92-.98-5.51-.98-1.58-4.15-2.11t-10.57-.53q-4.08 0-5.59.23-1.51.22-1.96 1.05-.46.83-.61 3.1l-1.05 23.4 12.53.16q2.41 0 6.94-.53t6.04-.68l.61.75-1.66 8.01q-1.51 0-5.89-.16-4.38-.15-9.21-.15-4.23 0-9.52.76l-.45 17.82q0 4.68 1.06 6.26 1.06 1.59 4.38 1.59 2.41 0 4.98-.23 2.57-.22 3.47-.22l.46.75-1.06 6.64q-1.96-.15-7.48-.3-5.51-.15-11.24-.15-4.38 0-9.22.53-4.83.53-6.34.83m100.11 0q-10.27 0-18.2-4.53t-12.23-12.83q-4.3-8.31-4.3-19.18 0-11.78 5.36-21.22 5.36-9.43 14.64-14.79 9.29-5.37 20.77-5.37 10.41 0 18.42 4.53 8 4.53 12.38 12.76t4.38 19.11q0 11.77-5.36 21.21t-14.8 14.87q-9.44 5.44-21.06 5.44m3.62-7.25q11.02 0 17.82-7.92 6.79-7.93 6.79-21.07 0-9.97-3.24-17.52-3.25-7.55-9.22-11.62-5.96-4.08-13.81-4.08-10.72 0-17.29 7.85t-6.57 20.99q0 9.97 3.17 17.52t8.99 11.7q5.81 4.15 13.36 4.15m53 7.1.91-6.34q4.83-.76 6.56-2.8 1.74-2.03 1.74-7.17l.15-47.87q0-3.77-.9-5.05-.91-1.29-3.63-1.29l-4.07.15-.46-.6.91-5.74q.75 0 4.53.15 3.77.15 10.12.15 3.32 0 8.22-.45 4.91-.45 6.42-.6l-.6 6.34q-4.08.45-5.74 1.43t-1.96 2.49-.76 6.2q-1.51 20.23-1.51 44.84 0 3.78.68 5.51.68 1.74 2.72 2.34 2.04.61 6.42.61 7.25 0 10.64-1.21 3.4-1.21 5.14-4.76 1.73-3.54 3.09-11.25l6.65-.75.45.91q-.3 1.96-1.44 8.98-1.13 7.02-2.03 14.72l-.76.91q-3.47-.15-14.72-.61-11.25-.45-18.95-.45-6.04 0-11.25.53t-6.57.68m66.74 0 .91-6.34q4.83-.76 6.57-2.8 1.73-2.03 1.73-7.17l.15-47.87q0-3.77-.9-5.05-.91-1.29-3.63-1.29l-4.07.15-.46-.6.91-5.74q.76 0 4.53.15 3.78.15 10.12.15 3.32 0 8.23-.45 4.9-.45 6.41-.6l-.6 6.34q-4.08.45-5.74 1.43t-1.96 2.49-.76 6.2q-1.51 20.23-1.51 44.84 0 3.78.68 5.51.68 1.74 2.72 2.34 2.04.61 6.42.61 7.25 0 10.64-1.21 3.4-1.21 5.14-4.76 1.74-3.54 3.09-11.25l6.65-.75.45.91q-.3 1.96-1.43 8.98-1.14 7.02-2.04 14.72l-.76.91q-3.47-.15-14.72-.61-11.25-.45-18.95-.45-6.04 0-11.25.53t-6.57.68m65.54.16.75-6.19q5.74-1.06 7.7-3.1 1.97-2.03 1.97-7.02l.15-48.02q0-3.77-.91-5.05-.91-1.29-3.62-1.29l-4.99.15-.3-.6.76-5.74q.9 0 4.9.15 4.01.15 10.5.15 3.47 0 8.53-.45t6.57-.6l-.61 6.19q-4.98.6-6.64 1.89-1.66 1.28-1.96 4.75-.61 12.08-1.14 26.73-.52 14.65-.52 22.65 0 4.83 1.05 6.49 1.06 1.66 4.23 1.66 2.12 0 3.85-.15 1.74-.15 2.34-.3l.3.6-1.05 6.04q-1.81 0-6.8-.15-4.98-.15-9.96-.15-4.08 0-8.84.53-4.75.53-6.26.83m83.35-.01q-17.06 0-27.03-9.81-9.97-9.82-9.97-26.73 0-11.93 5.51-21.37 5.52-9.44 15.41-14.72 9.89-5.29 22.42-5.29 4.53 0 9.44.61 4.91.6 8.3 1.36 3.4.75 4.31.9l.6.91q-.15.75-.75 3.55-.61 2.79-1.36 7.32-.76 4.53-1.06 9.67l-7.55.45q0-.45.15-2.12.15-1.66.15-3.77 0-10.57-16.91-10.57-11.78 0-18.57 7.78-6.8 7.77-6.8 21.36 0 15.1 7.17 24.01 7.18 8.91 19.26 8.91 8 0 12.76-4.3 4.75-4.31 6.87-13.52l7.55-.6q-.46 1.81-1.59 8.15t-1.58 11.93l-.91 1.21q-.91.3-4.3 1.43-3.4 1.14-9.14 2.19-5.74 1.06-12.38 1.06m66.14 0q-5.29 0-9.74-.91-4.46-.9-7.1-1.88t-3.25-1.29l-.75-1.36q.15-.75.53-3.39.37-2.65.75-7.4.38-4.76.38-9.59l6.79-.6q0 8.15 1.29 12.15 1.28 4 4.45 5.51t9.67 1.51q7.24 0 11.7-3.17 4.45-3.17 4.45-8.45 0-3.48-2.49-6.12t-5.74-4.45q-3.24-1.82-10.34-5.29-9.66-4.68-14.87-9.21t-5.21-11.63q0-6.34 3.85-11.47 3.85-5.14 10.64-8.01 6.8-2.87 15.1-2.87 4.99 0 9.37.61 4.37.6 6.94 1.28t3.17.98l.61 1.06q-.31 1.66-1.36 7.48-1.06 5.81-1.51 12.45l-5.89.61-.91-.61q0-.45.15-1.88.15-1.44.15-3.55 0-5.89-3.09-8.23-3.1-2.34-10.95-2.34-6.34 0-10.49 2.94-4.16 2.95-4.16 7.48t4.16 7.7q4.15 3.17 12.61 7.24 7.39 3.48 11.85 6.04 4.45 2.57 7.62 6.5 3.18 3.92 3.18 9.06 0 6.79-4.01 12-4 5.21-11.17 8.16-7.17 2.94-16.38 2.94m-244.73-639.82c-16.832-13.796-28.497-10.547-45.382 19.494a40.48 40.48 0 0 1-39.683 21.68l.053-3.996a37.82 37.82 0 0 0 21.466-33.93c0-21.077-17.087-38.164-38.164-38.164s-38.165 17.087-38.165 38.165c0 14.967 8.842 27.697 21.466 33.93v3.994a40.48 40.48 0 0 1-39.682-21.68c-16.78-30.04-28.497-33.29-45.275-19.494-16.885 13.85-83.467 93.374-164.642 86.077 0 0 16.086 36.54 59.976 28.443 0 0 23.436 24.29 61.468 7.298 0 0 19.76 17.79 51.187 1.597 0 0 23.437 17.844 48.312 2.45 0 0 14.115 10.174 29.722 7.51l1.065 91.883c-1.811-.32-3.196-.746-5.114-1.065-.053-.053-27.218-5.86-55.981-13.956-27.698-7.244-58.06-19.015-62.533-25.14q.586-.533 1.81-1.066a48 48 0 0 1 11.666-3.622c10.12-2.077 23.916-3.143 37.765-3.73 27.484-.957 32.438.268 32.918.374 0-.905 15.926 1.865 20.293-14.381-.16-.107.32-.746 0-1.12-.852-11.184-9.427-11.717-16.458-12.995-11.346-1.492-5.433-.906-20.774-.693-25.14 1.864-102.748-4.42-112.495 36.38 0 1.172-.054 1.918-.213 2.93 3.249 35.527 76.86 50.974 130.232 61.574a72.44 72.44 0 0 0-31.64 49.377c-1.863 22.264 15.82 43.41 56.78 67.06-31.105 22.052-51.612 42.719-49.908 67.753 2.877 20.4 20.88 47.62 56.248 64.824h.32s-24.715-37.818-26.42-58.432c-1.598-12.091 5.273-29.935 35.368-51.4l.852 75.53h.107c.213 6.39 5.22 11.558 11.452 11.558s11.186-5.114 11.399-11.56h.106l1.012-73.504c27.698 20.56 33.983 37.605 32.385 49.376-1.598 20.667-26.366 58.432-26.366 58.432h.32c35.314-17.205 53.37-44.423 56.248-64.824 1.65-25.034-18.803-45.701-49.91-67.753 40.96-23.65 58.645-44.796 56.78-67.06a72.44 72.44 0 0 0-31.64-49.377c53.373-10.653 126.985-26.047 130.234-61.574l-.213-2.93c-9.747-40.8-87.354-34.516-112.55-36.38-15.34-.213-9.373-.8-20.772.693-6.978 1.278-15.553 1.864-16.46 12.996-.265.373.267 1.066.054 1.172 4.368 16.193 20.24 13.423 20.294 14.275.48-.053 5.433-1.278 32.97-.266 13.797.532 27.539 1.598 37.713 3.675 5.007 1.012 9.16 2.344 11.665 3.675q1.225.533 1.81 1.066c-4.473 6.072-34.834 17.843-62.48 25.087-28.762 8.097-55.98 13.85-56.034 13.956l-1.97.373 1.17-91.19c15.768 2.77 29.936-7.51 29.936-7.51 24.875 15.447 48.312-2.45 48.312-2.45 31.426 16.192 51.187-1.598 51.187-1.598 38.032 17.044 61.468-7.298 61.468-7.298 24.18 5.546 49.003-6.248 59.977-28.497-81.23 7.35-147.81-72.227-164.643-86.023M991.206 360.62c-10.12-6.285-14.913-14.808-14.008-20.614.533-7.99-2.183-27.111 35.688-41.014l.906 75.903Zm82.189-20.614c.906 5.753-3.835 14.329-14.01 20.614l-19.547 12.357 1.012-72.813c34.57 13.85 31.96 32.119 32.492 39.842"/><path fill="#23488a" d="M1360.647 434.72c-3.177 3.178-6.707 3.53-10.59 2.825-4.236-.706-7.765-2.471-11.648-4.236-10.942-4.942-21.532-4.59-31.415 3.53-3.177 2.824-6.707 4.589-10.237 6.706-2.118 1.06-3.883 1.06-6 0-3.883-1.764-7.06-4.588-10.237-7.06-5.648-4.235-15.531-6-22.944-4.235 0-2.47 0-4.942.353-7.412 1.765-7.06 4.236-9.178 12.002-9.178h92.834c4.235 0 7.765-3.53 7.765-7.765 0-4.236-3.53-7.766-7.765-7.766h-47.653l-2.118-10.236c-4.588-19.061-12.001-37.063-21.531-54.36-4.942-8.824-10.237-16.942-16.59-24.708-1.06-1.412-2.471-1.765-3.53-1.06-1.412.707-1.412 2.119-.706 3.884 2.118 3.882 4.588 8.118 6.353 12 7.06 14.12 13.06 28.592 16.59 44.123 1.06 4.589 1.765 9.178 1.765 14.12s-1.06 9.53-2.47 14.12c-.354.704-.354 1.41-.706 2.116h-22.238c-14.825 0-24.003 7.06-27.18 21.885v.707c-2.47 16.942 3.883 33.885 4.236 34.944 1.412 3.53 3.177 6.707 4.942 9.883l3.177 6.354c7.412 15.884 3.882 37.77-7.766 48.711-6 5.649-13.766 8.826-23.65 9.53h-.353c-.706 0-2.117 0-3.53.353h-6.353c-1.765-.353-3.177-.353-4.942-.706-1.765-.352-3.53-.352-4.941-.705-15.45-3.1-26.971-16.064-28.24-31.769-1.411-10.59.354-20.12 5.296-28.944l1.059-2.118c2.824-5.648 6-11.295 7.765-18.355.353-.706 4.942-18.002 0-33.18v-.353a24.36 24.36 0 0 0-23.65-16.237h-37.414c-.706-4.236-1.412-10.59-2.471-14.472-4.59-19.06-12.001-37.063-21.532-54.36-4.942-8.824-10.236-16.942-16.59-24.708-1.06-1.412-2.47-1.765-3.53-1.059-1.412.706-1.412 2.118-.706 3.883 2.118 3.883 4.59 8.12 6.354 12.001 7.06 14.12 13.06 28.592 16.59 44.123 1.059 4.59 1.765 9.177 1.765 14.12 0 4.94-1.06 9.53-2.47 14.118-.707 2.118-1.413 4.236-1.766 6.354h-37.416c-4.235 0-7.765 3.53-7.765 7.766 0 4.235 3.53 7.765 7.765 7.765h99.188c4.235 0 7.412 2.118 8.824 6 1.412 5.295 1.412 10.943 1.06 15.532-4.59-1.06-10.943-2.47-14.12-4.236-10.59-4.589-20.473-3.883-29.65 3.53-3.177 2.47-6.354 4.236-9.884 6.354q-4.236 2.647-8.471 0c-2.824-1.765-5.295-3.53-7.766-5.295-4.942-3.883-10.236-6.354-16.59-5.648-8.824.706-15.531 5.295-21.18 11.648-2.47 2.824-2.47 5.648-.352 7.766s5.295 1.412 7.766-1.059q3.706-4.236 8.47-6.354c4.943-2.117 9.885-2.47 14.473 1.06 3.883 2.823 7.413 5.647 11.649 7.765 5.648 2.824 10.942 2.824 16.237-.353 3.53-2.118 7.412-3.883 10.59-6.707 6.706-6 14.119-6.353 22.237-2.47 3.53 1.764 9.883 3.176 14.825 4.235-1.412 4.59-3.53 9.178-6 13.414l-1.06 2.117c-6 11.65-8.47 24.356-6.706 38.122 2.824 22.591 18.002 39.887 40.24 45.182 2.47.706 4.588.706 6.706 1.06 1.412 0 2.824.352 4.236.705h9.884c.705 0 1.764 0 2.47-.353h1.765c13.414-1.06 24.003-5.648 32.827-13.767 16.943-15.53 21.885-44.122 11.296-66.713a66 66 0 0 0-3.53-7.06c-1.412-3.176-3.177-6-4.236-8.47 0 0-1.06-3.178-2.118-7.767 6-3.176 10.943-2.823 16.59 1.412 3.177 2.118 6 4.59 9.53 6.354 6.002 3.53 11.65 3.53 17.65.353q6.883-3.706 12.707-8.472c4.236-3.176 8.825-4.235 13.766-2.823 2.47.706 4.59 1.412 7.06 2.47 6 2.824 12.354 4.942 19.414 4.59 4.942-.354 9.177-2.472 12.354-6.354 1.765-2.118 1.412-5.295-.353-7.06-2.824-1.412-5.647-1.765-7.765.353"/><path fill="#23488a" d="M1163.684 308c13.766 28.24 26.473 57.184 33.18 88.246 2.118 9.178 3.53 18.708 3.177 28.239 0 9.53-2.471 19.06-4.942 28.238-2.47 9.53-6.354 18.708-5.648 28.944v4.942c.706 8.119 2.47 15.53 8.825 21.179 11.295 10.236 30.71 6.706 38.475-7.06 4.588-8.118 5.647-17.296 4.94-26.473a204.7 204.7 0 0 0-6.352-38.122 430.6 430.6 0 0 0-42.71-108.718c-9.884-17.65-20.827-34.24-33.534-49.417-2.47-2.824-4.942-3.53-7.413-1.765s-3.176 4.589-1.058 7.766c4.588 7.412 9.177 15.53 13.06 24.002m173.313 169.078c-10.236 0-18.002 7.765-18.002 17.649 0 10.236 7.766 18.355 17.649 18.355a18.143 18.143 0 0 0 18.355-18.355q0-7.413-5.295-12.708c-3.177-3.177-7.765-4.941-12.707-4.941m6.354 24.355c-1.765 1.765-4.236 2.47-6.707 2.47-4.942 0-8.472-3.882-8.472-9.176 0-4.942 3.883-8.825 8.825-8.825 2.47 0 4.942 1.058 6.354 2.47 1.765 1.766 2.47 3.884 2.47 6 0 3.178-1.058 5.296-2.47 7.06m-48.36-16.59a10.236 10.236 0 0 0 7.06-17.649 10.236 10.236 0 0 0-14.824 0q-3.177 3.177-3.177 7.413c.706 5.294 5.295 10.236 10.942 10.236m-2.47-10.59c0-.705.352-1.41.705-1.764s1.06-.706 1.765-.706c.706 0 1.06.353 1.765.706.353.353.706 1.06.706 1.765 0 1.412-1.06 2.47-2.47 2.47-1.413 0-2.472-1.058-2.472-2.47m3.883 31.062c-5.294 0-9.883 2.118-13.766 5.648-3.53 3.53-5.648 8.471-5.648 13.766 0 9.883 8.825 18.708 19.06 18.708 4.943 0 10.238-2.118 13.768-5.648s5.647-8.47 5.294-13.413c0-10.59-8.824-19.06-18.708-19.06m6 25.061c-1.764 1.764-3.882 2.823-6.353 2.823-4.588 0-8.471-3.882-8.471-8.47 0-2.472 1.059-4.59 2.47-6.355 1.766-1.765 3.883-2.47 6.354-2.47 4.589 0 8.472 4.235 8.472 8.824 0 1.765-.706 3.883-2.471 5.648m-210.73-41.299c-3.176 0-6 1.06-8.118 3.177a10.942 10.942 0 0 0 8.119 18.708c6.354 0 10.942-4.942 10.942-10.943 0-3.177-1.06-5.647-3.177-7.765s-4.941-3.177-7.765-3.177m0 16.59c-3.177 0-5.648-2.47-5.648-5.295 0-1.412.353-2.824 1.412-3.883 1.06-1.058 2.47-1.764 4.236-1.764 1.412 0 2.824.706 3.883 1.412 1.059 1.058 1.412 2.47 1.412 3.882 0 3.177-2.471 5.648-5.295 5.648m42.71-42.746c-8.824-.353-16.943 7.413-16.943 16.59 0 9.53 7.413 17.296 16.59 17.65h.353c8.825 0 16.59-7.413 16.943-16.59 0-4.59-1.411-8.825-4.588-12.002-3.177-3.53-7.766-5.648-12.355-5.648m0 24.003c-4.235 0-7.06-3.53-7.06-7.413 0-3.53 3.53-7.06 7.06-7.06 2.118 0 3.883 1.06 5.295 2.471s2.118 3.177 2.118 4.942c-.353 3.883-3.883 7.413-7.413 7.06m-1.06 18.743c-7.411 0-13.06 5.648-13.412 13.06 0 7.06 5.648 13.06 13.06 13.06h.354c7.06 0 13.06-5.647 13.06-13.06 0-3.177-1.412-6.706-3.53-9.177-2.47-2.118-6-3.53-9.53-3.883m0 19.414s-.353 0 0 0c-3.53 0-6.001-2.824-6.001-6 0-3.53 2.824-6 6-6 1.412 0 3.177.705 4.236 1.763 1.06 1.06 1.765 2.471 1.765 4.236 0 3.177-2.824 6-6 6m-462.742-90.361c3.305 3.177 6.978 3.53 11.019 2.824 4.407-.706 8.08-2.471 12.12-4.236 11.386-4.942 22.405-4.59 32.689 3.53 3.306 2.824 6.978 4.589 10.65 6.706 2.205 1.06 4.04 1.06 6.245 0 4.04-1.764 7.346-4.588 10.652-7.06 5.876-4.235 16.16-6 23.874-4.235 0-2.47 0-4.942-.368-7.412-1.836-7.06-4.407-9.178-12.488-9.178h-96.597c-4.407 0-8.08-3.53-8.08-7.765 0-4.236 3.673-7.766 8.08-7.766h49.585l2.204-10.236c4.775-19.061 12.488-37.063 22.405-54.36 5.142-8.824 10.65-16.942 17.262-24.708 1.102-1.412 2.57-1.765 3.673-1.06 1.47.707 1.47 2.119.735 3.884-2.204 3.882-4.775 8.118-6.611 12-7.346 14.12-13.59 28.592-17.263 44.123-1.102 4.589-1.837 9.178-1.837 14.12s1.102 9.53 2.572 14.12c.367.704.367 1.41.734 2.116h23.14c15.426 0 24.975 7.06 28.28 21.885v.707c2.572 16.942-4.04 33.885-4.407 34.944-1.47 3.53-3.305 6.707-5.142 9.883l-3.305 6.354c-7.714 15.884-4.04 37.77 8.08 48.711 6.244 5.649 14.324 8.826 24.608 9.53h.368c.734 0 2.203 0 3.673.353h6.61c1.837-.353 3.306-.353 5.143-.706 1.836-.352 3.673-.352 5.142-.705 16.074-3.1 28.064-16.064 29.383-31.769 1.47-10.59-.367-20.12-5.51-28.944l-1.101-2.118c-2.938-5.648-6.244-11.295-8.08-18.355-.368-.706-5.143-18.002 0-33.18v-.353c3.664-9.973 13.607-16.534 24.608-16.237h38.933c.734-4.236 1.469-10.59 2.57-14.472 4.775-19.06 12.489-37.063 22.405-54.36 5.142-8.824 10.652-16.942 17.263-24.708 1.102-1.412 2.57-1.765 3.673-1.059 1.47.706 1.47 2.118.734 3.883-2.203 3.883-4.774 8.12-6.61 12.001-7.347 14.12-13.59 28.592-17.263 44.123-1.102 4.59-1.837 9.177-1.837 14.12 0 4.94 1.102 9.53 2.57 14.118.736 2.118 1.47 4.236 1.838 6.354h38.932c4.408 0 8.08 3.53 8.08 7.766 0 4.235-3.672 7.765-8.08 7.765h-103.21c-4.407 0-7.712 2.118-9.181 6-1.47 5.295-1.47 10.943-1.102 15.532 4.775-1.06 11.386-2.47 14.69-4.236 11.02-4.589 21.304-3.883 30.854 3.53 3.305 2.47 6.61 4.236 10.284 6.354q4.407 2.647 8.815 0c2.938-1.765 5.51-3.53 8.08-5.295 5.142-3.883 10.652-6.354 17.263-5.648 9.182.706 16.16 5.295 22.037 11.648 2.57 2.824 2.57 5.648.368 7.766s-5.51 1.412-8.08-1.059q-3.857-4.236-8.816-6.354c-5.142-2.117-10.284-2.47-15.06 1.06-4.04 2.823-7.712 5.647-12.12 7.765-5.876 2.824-11.385 2.824-16.895-.353-3.673-2.118-7.713-3.883-11.018-6.707-6.98-6-14.692-6.353-23.14-2.47-3.672 1.764-10.284 3.176-15.426 4.235 1.47 4.59 3.673 9.178 6.244 13.414l1.102 2.117c6.244 11.65 8.815 24.356 6.979 38.122-2.94 22.591-18.732 39.887-41.872 45.182-2.57.706-4.774.706-6.978 1.06-1.47 0-2.938.352-4.407.705h-10.285c-.734 0-1.836 0-2.57-.353h-1.837c-13.957-1.06-24.976-5.648-34.158-13.767-17.63-15.53-22.772-44.122-11.753-66.713a65 65 0 0 1 3.673-7.06c1.469-3.176 3.305-6 4.407-8.47 0 0 1.102-3.178 2.204-7.767-6.244-3.176-11.386-2.823-17.263 1.412-3.305 2.118-6.244 4.59-9.917 6.354-6.244 3.53-12.12 3.53-18.364.353q-7.162-3.706-13.223-8.472c-4.407-3.176-9.182-4.235-14.324-2.823-2.571.706-4.775 1.412-7.346 2.47-6.244 2.824-12.855 4.942-20.2 4.59-5.143-.354-9.55-2.472-12.856-6.354-1.836-2.118-1.47-5.295.367-7.06 2.939-1.412 5.877-1.765 8.08.353"/><path fill="#23488a" d="M875.534 308c-14.325 28.24-27.547 57.184-34.526 88.246-2.203 9.178-3.673 18.708-3.305 28.239 0 9.53 2.57 19.06 5.142 28.238 2.57 9.53 6.61 18.708 5.876 28.944v4.942c-.734 8.119-2.57 15.53-9.182 21.179-11.753 10.236-31.954 6.706-40.034-7.06-4.775-8.118-5.877-17.296-5.142-26.473a197.5 197.5 0 0 1 6.61-38.122c9.608-38.011 24.56-74.587 44.443-108.718 10.284-17.65 21.67-34.24 34.892-49.417 2.57-2.824 5.142-3.53 7.714-1.765 2.57 1.765 3.305 4.589 1.1 7.766-4.773 7.412-9.55 15.53-13.59 24.002M695.195 477.079c10.652 0 18.732 7.765 18.732 17.649 0 10.236-8.08 18.355-18.364 18.355-5.084.057-9.977-1.858-13.571-5.313-3.595-3.455-5.588-8.157-5.53-13.042q0-7.413 5.51-12.708c3.306-3.177 8.08-4.941 13.223-4.941m-6.611 24.355c1.836 1.765 4.408 2.47 6.979 2.47 5.142 0 8.815-3.882 8.815-9.176 0-4.942-4.04-8.825-9.183-8.825-2.57 0-5.142 1.058-6.611 2.47-1.836 1.766-2.571 3.884-2.571 6 0 3.178 1.102 5.296 2.57 7.06m50.32-16.59c-4.356 0-8.272-2.548-9.89-6.435-1.617-3.885-.61-8.327 2.544-11.214 2.01-2.029 4.798-3.177 7.713-3.177s5.703 1.149 7.713 3.178q3.306 3.177 3.306 7.412c-.735 5.294-5.51 10.236-11.386 10.236m2.57-10.59c0-.705-.366-1.41-.734-1.764-.367-.353-1.102-.706-1.836-.706-.735 0-1.102.353-1.837.706-.367.353-.734 1.06-.734 1.765 0 1.412 1.102 2.47 2.57 2.47 1.47 0 2.572-1.058 2.572-2.47m-4.04 31.062c5.509 0 10.284 2.118 14.324 5.648a19.1 19.1 0 0 1 5.877 13.766c0 9.883-9.183 18.708-19.834 18.708-5.142 0-10.652-2.118-14.324-5.648s-5.877-8.47-5.51-13.413c0-10.59 9.182-19.06 19.467-19.06m-6.244 25.061c1.836 1.764 4.04 2.823 6.61 2.823 4.776 0 8.816-3.882 8.816-8.47 0-2.472-1.102-4.59-2.571-6.355-1.837-1.765-4.04-2.47-6.611-2.47-4.775 0-8.815 4.235-8.815 8.824 0 1.765.734 3.883 2.57 5.648M950.46 489.08c3.305 0 6.244 1.06 8.447 3.177 3.335 3.175 4.3 7.991 2.432 12.13-1.87 4.138-6.19 6.75-10.88 6.578-6.61 0-11.385-4.942-11.385-10.943 0-3.177 1.102-5.647 3.305-7.765s5.142-3.177 8.08-3.177m0 16.59c3.306 0 5.877-2.47 5.877-5.295 0-1.412-.367-2.824-1.47-3.883-1.101-1.058-2.57-1.764-4.406-1.764-1.47 0-2.94.706-4.04 1.412-1.102 1.058-1.47 2.47-1.47 3.882 0 3.177 2.57 5.648 5.51 5.648m-44.442-42.746c9.182-.353 17.63 7.413 17.63 16.59 0 9.53-7.713 17.296-17.263 17.65h-.367c-9.183 0-17.263-7.413-17.63-16.59 0-4.59 1.469-8.825 4.775-12.002 3.305-3.53 8.08-5.648 12.855-5.648m0 24.003c4.407 0 7.346-3.53 7.346-7.413 0-3.53-3.673-7.06-7.346-7.06-2.204 0-4.04 1.06-5.51 2.471s-2.203 3.177-2.203 4.942c.367 3.883 4.04 7.413 7.713 7.06m1.102 18.743c7.713 0 13.59 5.648 13.957 13.06 0 7.06-5.877 13.06-13.59 13.06h-.367c-7.346 0-13.59-5.647-13.59-13.06 0-3.177 1.469-6.706 3.673-9.177 2.57-2.118 6.244-3.53 9.917-3.883m0 19.414s.367 0 0 0c3.672 0 6.244-2.824 6.244-6 0-3.53-2.94-6-6.244-6-1.47 0-3.306.705-4.408 1.763-1.102 1.06-1.836 2.471-1.836 4.236 0 3.177 2.938 6 6.244 6"/></g><path fill="transparent" stroke="transparent" d="M596 0h808v711H596z"/></g></svg>